<mxfile host="app.diagrams.net" modified="2022-07-09T14:02:03.556Z" agent="5.0 (Windows NT 10.0; Win64; x64) AppleWebKit/537.36 (KHTML, like Gecko) Chrome/103.0.0.0 Safari/537.36" etag="26FDf4yQfNbluelVML5n" version="20.0.4" type="github">
  <diagram id="yezn9lv_8U38S4_ol9oX" name="Page-1">
    <mxGraphModel dx="1021" dy="520" grid="1" gridSize="10" guides="1" tooltips="1" connect="1" arrows="1" fold="1" page="1" pageScale="1" pageWidth="850" pageHeight="1100" math="0" shadow="0">
      <root>
        <mxCell id="0" />
        <mxCell id="1" parent="0" />
        <mxCell id="8NmKRbJ38vvldy6Dzvw--1" value="" style="rounded=1;whiteSpace=wrap;html=1;fillColor=#e1d5e7;strokeColor=#9673a6;" vertex="1" parent="1">
          <mxGeometry x="90" y="270" width="150" height="400" as="geometry" />
        </mxCell>
        <mxCell id="8NmKRbJ38vvldy6Dzvw--2" value="Client" style="html=1;shadow=0;dashed=0;shape=mxgraph.bootstrap.rrect;rSize=5;strokeColor=none;strokeWidth=1;fillColor=none;fontColor=#6C767D;whiteSpace=wrap;align=left;verticalAlign=middle;spacingLeft=10;fontSize=14;spacing=10;" vertex="1" parent="1">
          <mxGeometry x="90" y="280" width="70" height="20" as="geometry" />
        </mxCell>
        <mxCell id="8NmKRbJ38vvldy6Dzvw--3" value="" style="rounded=1;whiteSpace=wrap;html=1;fillColor=#f5f5f5;strokeColor=#666666;fontColor=#333333;" vertex="1" parent="1">
          <mxGeometry x="260" y="270" width="720" height="400" as="geometry" />
        </mxCell>
        <mxCell id="8NmKRbJ38vvldy6Dzvw--6" value="&amp;nbsp; &amp;nbsp; List companies flow" style="rounded=1;whiteSpace=wrap;html=1;fillColor=#6a00ff;strokeColor=#3700CC;fontColor=#ffffff;align=left;" vertex="1" parent="1">
          <mxGeometry x="90" y="210" width="890" height="50" as="geometry" />
        </mxCell>
        <mxCell id="8NmKRbJ38vvldy6Dzvw--9" value="" style="group" vertex="1" connectable="0" parent="1">
          <mxGeometry x="290" y="270" width="160" height="50" as="geometry" />
        </mxCell>
        <mxCell id="8NmKRbJ38vvldy6Dzvw--10" value="" style="group" vertex="1" connectable="0" parent="8NmKRbJ38vvldy6Dzvw--9">
          <mxGeometry x="-10" width="110" height="50" as="geometry" />
        </mxCell>
        <mxCell id="8NmKRbJ38vvldy6Dzvw--7" value="" style="shape=image;html=1;verticalAlign=top;verticalLabelPosition=bottom;labelBackgroundColor=#ffffff;imageAspect=0;aspect=fixed;image=https://cdn4.iconfinder.com/data/icons/scripting-and-programming-languages/512/660277-Python_logo-128.png;fontColor=#999999;fillColor=none;" vertex="1" parent="8NmKRbJ38vvldy6Dzvw--10">
          <mxGeometry x="30" width="50" height="50" as="geometry" />
        </mxCell>
        <mxCell id="8NmKRbJ38vvldy6Dzvw--8" value="Flask - API" style="html=1;shadow=0;dashed=0;shape=mxgraph.bootstrap.rrect;rSize=5;strokeColor=none;strokeWidth=1;fillColor=none;fontColor=#6C767D;whiteSpace=wrap;align=left;verticalAlign=middle;spacingLeft=10;fontSize=14;spacing=10;" vertex="1" parent="8NmKRbJ38vvldy6Dzvw--10">
          <mxGeometry y="30" width="110" height="20" as="geometry" />
        </mxCell>
        <mxCell id="8NmKRbJ38vvldy6Dzvw--19" style="edgeStyle=orthogonalEdgeStyle;rounded=0;orthogonalLoop=1;jettySize=auto;html=1;entryX=-0.044;entryY=0.483;entryDx=0;entryDy=0;entryPerimeter=0;fontColor=#999999;" edge="1" parent="1" source="8NmKRbJ38vvldy6Dzvw--14" target="8NmKRbJ38vvldy6Dzvw--18">
          <mxGeometry relative="1" as="geometry" />
        </mxCell>
        <mxCell id="8NmKRbJ38vvldy6Dzvw--14" value="" style="shape=mxgraph.cisco.computers_and_peripherals.web_browser;html=1;pointerEvents=1;dashed=0;fillColor=#036897;strokeColor=#ffffff;strokeWidth=2;verticalLabelPosition=bottom;verticalAlign=top;align=center;outlineConnect=0;fontColor=#999999;" vertex="1" parent="1">
          <mxGeometry x="120" y="390" width="62" height="64" as="geometry" />
        </mxCell>
        <mxCell id="8NmKRbJ38vvldy6Dzvw--21" value="" style="group" vertex="1" connectable="0" parent="1">
          <mxGeometry x="280" y="398" width="130" height="68" as="geometry" />
        </mxCell>
        <mxCell id="8NmKRbJ38vvldy6Dzvw--18" value="" style="sketch=0;html=1;dashed=0;whitespace=wrap;fillColor=#2875E2;strokeColor=#ffffff;points=[[0.005,0.63,0],[0.1,0.2,0],[0.9,0.2,0],[0.5,0,0],[0.995,0.63,0],[0.72,0.99,0],[0.5,1,0],[0.28,0.99,0]];shape=mxgraph.kubernetes.icon;prIcon=api;fontColor=#999999;" vertex="1" parent="8NmKRbJ38vvldy6Dzvw--21">
          <mxGeometry x="30" width="50" height="48" as="geometry" />
        </mxCell>
        <mxCell id="8NmKRbJ38vvldy6Dzvw--20" value="API - Engine" style="html=1;shadow=0;dashed=0;shape=mxgraph.bootstrap.rrect;rSize=5;strokeColor=none;strokeWidth=1;fillColor=none;fontColor=#6C767D;whiteSpace=wrap;align=left;verticalAlign=middle;spacingLeft=10;fontSize=14;spacing=10;" vertex="1" parent="8NmKRbJ38vvldy6Dzvw--21">
          <mxGeometry y="48" width="130" height="20" as="geometry" />
        </mxCell>
        <mxCell id="8NmKRbJ38vvldy6Dzvw--24" value="" style="group" vertex="1" connectable="0" parent="1">
          <mxGeometry x="540" y="390" width="90" height="84" as="geometry" />
        </mxCell>
        <mxCell id="8NmKRbJ38vvldy6Dzvw--22" value="" style="shape=image;html=1;verticalAlign=top;verticalLabelPosition=bottom;labelBackgroundColor=#ffffff;imageAspect=0;aspect=fixed;image=https://cdn3.iconfinder.com/data/icons/animals-105/150/icon_animal_elefante-128.png;fontColor=#999999;fillColor=none;" vertex="1" parent="8NmKRbJ38vvldy6Dzvw--24">
          <mxGeometry x="20" width="70" height="70" as="geometry" />
        </mxCell>
        <mxCell id="8NmKRbJ38vvldy6Dzvw--23" value="&lt;font color=&quot;#ffff00&quot;&gt;PostgreSQL&lt;/font&gt;" style="html=1;shadow=0;dashed=0;shape=mxgraph.bootstrap.rrect;rSize=5;strokeColor=none;strokeWidth=1;fillColor=none;fontColor=#6C767D;whiteSpace=wrap;align=left;verticalAlign=middle;spacingLeft=10;fontSize=14;spacing=10;fontStyle=1" vertex="1" parent="8NmKRbJ38vvldy6Dzvw--24">
          <mxGeometry y="64" width="70" height="20" as="geometry" />
        </mxCell>
        <mxCell id="8NmKRbJ38vvldy6Dzvw--27" style="edgeStyle=orthogonalEdgeStyle;rounded=0;orthogonalLoop=1;jettySize=auto;html=1;entryX=0;entryY=0.75;entryDx=0;entryDy=0;fontColor=#FFFF00;" edge="1" parent="1" source="8NmKRbJ38vvldy6Dzvw--18" target="8NmKRbJ38vvldy6Dzvw--22">
          <mxGeometry relative="1" as="geometry">
            <Array as="points">
              <mxPoint x="410" y="422" />
              <mxPoint x="410" y="443" />
            </Array>
          </mxGeometry>
        </mxCell>
        <mxCell id="8NmKRbJ38vvldy6Dzvw--30" value="" style="sketch=0;html=1;aspect=fixed;strokeColor=none;shadow=0;align=center;verticalAlign=top;fillColor=#3B8DF1;shape=mxgraph.gcp2.view_list;fontColor=#FFFF00;" vertex="1" parent="1">
          <mxGeometry x="800" y="398" width="46.98" height="58" as="geometry" />
        </mxCell>
        <mxCell id="8NmKRbJ38vvldy6Dzvw--31" style="rounded=0;orthogonalLoop=1;jettySize=auto;html=1;entryX=0.041;entryY=0.496;entryDx=0;entryDy=0;entryPerimeter=0;fontColor=#FFFF00;" edge="1" parent="1" source="8NmKRbJ38vvldy6Dzvw--22" target="8NmKRbJ38vvldy6Dzvw--30">
          <mxGeometry relative="1" as="geometry" />
        </mxCell>
        <mxCell id="8NmKRbJ38vvldy6Dzvw--32" value="Companies List" style="html=1;shadow=0;dashed=0;shape=mxgraph.bootstrap.rrect;rSize=5;strokeColor=none;strokeWidth=1;fillColor=none;fontColor=#6C767D;whiteSpace=wrap;align=left;verticalAlign=middle;spacingLeft=10;fontSize=14;spacing=10;" vertex="1" parent="1">
          <mxGeometry x="753.49" y="450" width="140" height="40" as="geometry" />
        </mxCell>
        <mxCell id="8NmKRbJ38vvldy6Dzvw--33" value="&amp;nbsp; Show company by id flow" style="rounded=1;whiteSpace=wrap;html=1;fillColor=#6a00ff;strokeColor=#3700CC;fontColor=#ffffff;align=left;" vertex="1" parent="1">
          <mxGeometry x="90" y="710" width="890" height="50" as="geometry" />
        </mxCell>
        <mxCell id="8NmKRbJ38vvldy6Dzvw--34" value="" style="rounded=1;whiteSpace=wrap;html=1;fillColor=#e1d5e7;strokeColor=#9673a6;" vertex="1" parent="1">
          <mxGeometry x="90" y="770" width="150" height="400" as="geometry" />
        </mxCell>
        <mxCell id="8NmKRbJ38vvldy6Dzvw--35" value="Client" style="html=1;shadow=0;dashed=0;shape=mxgraph.bootstrap.rrect;rSize=5;strokeColor=none;strokeWidth=1;fillColor=none;fontColor=#6C767D;whiteSpace=wrap;align=left;verticalAlign=middle;spacingLeft=10;fontSize=14;spacing=10;" vertex="1" parent="1">
          <mxGeometry x="90" y="780" width="70" height="20" as="geometry" />
        </mxCell>
        <mxCell id="8NmKRbJ38vvldy6Dzvw--36" value="" style="shape=mxgraph.cisco.computers_and_peripherals.web_browser;html=1;pointerEvents=1;dashed=0;fillColor=#036897;strokeColor=#ffffff;strokeWidth=2;verticalLabelPosition=bottom;verticalAlign=top;align=center;outlineConnect=0;fontColor=#999999;" vertex="1" parent="1">
          <mxGeometry x="120" y="890" width="62" height="64" as="geometry" />
        </mxCell>
        <mxCell id="8NmKRbJ38vvldy6Dzvw--37" value="" style="rounded=1;whiteSpace=wrap;html=1;fillColor=#f5f5f5;strokeColor=#666666;fontColor=#333333;" vertex="1" parent="1">
          <mxGeometry x="250" y="770" width="720" height="400" as="geometry" />
        </mxCell>
        <mxCell id="8NmKRbJ38vvldy6Dzvw--38" value="" style="group" vertex="1" connectable="0" parent="1">
          <mxGeometry x="270" y="780" width="160" height="50" as="geometry" />
        </mxCell>
        <mxCell id="8NmKRbJ38vvldy6Dzvw--39" value="" style="group" vertex="1" connectable="0" parent="8NmKRbJ38vvldy6Dzvw--38">
          <mxGeometry x="-10" width="110" height="50" as="geometry" />
        </mxCell>
        <mxCell id="8NmKRbJ38vvldy6Dzvw--40" value="" style="shape=image;html=1;verticalAlign=top;verticalLabelPosition=bottom;labelBackgroundColor=#ffffff;imageAspect=0;aspect=fixed;image=https://cdn4.iconfinder.com/data/icons/scripting-and-programming-languages/512/660277-Python_logo-128.png;fontColor=#999999;fillColor=none;" vertex="1" parent="8NmKRbJ38vvldy6Dzvw--39">
          <mxGeometry x="30" width="50" height="50" as="geometry" />
        </mxCell>
        <mxCell id="8NmKRbJ38vvldy6Dzvw--41" value="Flask - API" style="html=1;shadow=0;dashed=0;shape=mxgraph.bootstrap.rrect;rSize=5;strokeColor=none;strokeWidth=1;fillColor=none;fontColor=#6C767D;whiteSpace=wrap;align=left;verticalAlign=middle;spacingLeft=10;fontSize=14;spacing=10;" vertex="1" parent="8NmKRbJ38vvldy6Dzvw--39">
          <mxGeometry y="30" width="110" height="20" as="geometry" />
        </mxCell>
        <mxCell id="8NmKRbJ38vvldy6Dzvw--42" value="" style="group" vertex="1" connectable="0" parent="1">
          <mxGeometry x="270" y="890" width="130" height="68" as="geometry" />
        </mxCell>
        <mxCell id="8NmKRbJ38vvldy6Dzvw--43" value="" style="sketch=0;html=1;dashed=0;whitespace=wrap;fillColor=#2875E2;strokeColor=#ffffff;points=[[0.005,0.63,0],[0.1,0.2,0],[0.9,0.2,0],[0.5,0,0],[0.995,0.63,0],[0.72,0.99,0],[0.5,1,0],[0.28,0.99,0]];shape=mxgraph.kubernetes.icon;prIcon=api;fontColor=#999999;" vertex="1" parent="8NmKRbJ38vvldy6Dzvw--42">
          <mxGeometry x="30" width="50" height="48" as="geometry" />
        </mxCell>
        <mxCell id="8NmKRbJ38vvldy6Dzvw--44" value="API - Engine" style="html=1;shadow=0;dashed=0;shape=mxgraph.bootstrap.rrect;rSize=5;strokeColor=none;strokeWidth=1;fillColor=none;fontColor=#6C767D;whiteSpace=wrap;align=left;verticalAlign=middle;spacingLeft=10;fontSize=14;spacing=10;" vertex="1" parent="8NmKRbJ38vvldy6Dzvw--42">
          <mxGeometry y="48" width="130" height="20" as="geometry" />
        </mxCell>
        <mxCell id="8NmKRbJ38vvldy6Dzvw--45" style="edgeStyle=none;rounded=0;orthogonalLoop=1;jettySize=auto;html=1;entryX=0.005;entryY=0.63;entryDx=0;entryDy=0;entryPerimeter=0;fontColor=#FFFF00;" edge="1" parent="1" source="8NmKRbJ38vvldy6Dzvw--36" target="8NmKRbJ38vvldy6Dzvw--43">
          <mxGeometry relative="1" as="geometry" />
        </mxCell>
        <mxCell id="8NmKRbJ38vvldy6Dzvw--47" value="" style="group" vertex="1" connectable="0" parent="1">
          <mxGeometry x="450" y="870" width="90" height="84" as="geometry" />
        </mxCell>
        <mxCell id="8NmKRbJ38vvldy6Dzvw--48" value="" style="shape=image;html=1;verticalAlign=top;verticalLabelPosition=bottom;labelBackgroundColor=#ffffff;imageAspect=0;aspect=fixed;image=https://cdn3.iconfinder.com/data/icons/animals-105/150/icon_animal_elefante-128.png;fontColor=#999999;fillColor=none;" vertex="1" parent="8NmKRbJ38vvldy6Dzvw--47">
          <mxGeometry x="20" width="70" height="70" as="geometry" />
        </mxCell>
        <mxCell id="8NmKRbJ38vvldy6Dzvw--49" value="&lt;font color=&quot;#ffff00&quot;&gt;PostgreSQL&lt;/font&gt;" style="html=1;shadow=0;dashed=0;shape=mxgraph.bootstrap.rrect;rSize=5;strokeColor=none;strokeWidth=1;fillColor=none;fontColor=#6C767D;whiteSpace=wrap;align=left;verticalAlign=middle;spacingLeft=10;fontSize=14;spacing=10;fontStyle=1" vertex="1" parent="8NmKRbJ38vvldy6Dzvw--47">
          <mxGeometry y="64" width="70" height="20" as="geometry" />
        </mxCell>
        <mxCell id="8NmKRbJ38vvldy6Dzvw--50" style="edgeStyle=orthogonalEdgeStyle;rounded=0;orthogonalLoop=1;jettySize=auto;html=1;entryX=0;entryY=0.5;entryDx=0;entryDy=0;fontColor=#FFFF00;" edge="1" parent="1" source="8NmKRbJ38vvldy6Dzvw--43" target="8NmKRbJ38vvldy6Dzvw--48">
          <mxGeometry relative="1" as="geometry" />
        </mxCell>
        <mxCell id="8NmKRbJ38vvldy6Dzvw--59" style="edgeStyle=orthogonalEdgeStyle;rounded=0;orthogonalLoop=1;jettySize=auto;html=1;entryX=0;entryY=0.5;entryDx=0;entryDy=0;dashed=1;fontColor=#CC0000;" edge="1" parent="1" source="8NmKRbJ38vvldy6Dzvw--51" target="8NmKRbJ38vvldy6Dzvw--58">
          <mxGeometry relative="1" as="geometry" />
        </mxCell>
        <mxCell id="8NmKRbJ38vvldy6Dzvw--51" value="" style="shape=image;html=1;verticalAlign=top;verticalLabelPosition=bottom;labelBackgroundColor=#ffffff;imageAspect=0;aspect=fixed;image=https://cdn4.iconfinder.com/data/icons/travello-basic-ui-1/64/Gear-128.png;fontColor=#FFFF00;fillColor=none;" vertex="1" parent="1">
          <mxGeometry x="640" y="870" width="70" height="70" as="geometry" />
        </mxCell>
        <mxCell id="8NmKRbJ38vvldy6Dzvw--56" style="edgeStyle=orthogonalEdgeStyle;rounded=0;orthogonalLoop=1;jettySize=auto;html=1;entryX=1;entryY=0.5;entryDx=0;entryDy=0;fontColor=#CC0000;exitX=0.438;exitY=1.062;exitDx=0;exitDy=0;exitPerimeter=0;dashed=1;" edge="1" parent="1" source="8NmKRbJ38vvldy6Dzvw--52" target="8NmKRbJ38vvldy6Dzvw--54">
          <mxGeometry relative="1" as="geometry">
            <Array as="points">
              <mxPoint x="671" y="1070" />
            </Array>
          </mxGeometry>
        </mxCell>
        <mxCell id="8NmKRbJ38vvldy6Dzvw--52" value="Has a company with this id?" style="html=1;shadow=0;dashed=0;shape=mxgraph.bootstrap.rrect;rSize=5;strokeColor=none;strokeWidth=1;fillColor=none;fontColor=#6C767D;whiteSpace=wrap;align=left;verticalAlign=middle;spacingLeft=10;fontSize=14;spacing=10;" vertex="1" parent="1">
          <mxGeometry x="570" y="947" width="230" height="20" as="geometry" />
        </mxCell>
        <mxCell id="8NmKRbJ38vvldy6Dzvw--53" style="edgeStyle=orthogonalEdgeStyle;rounded=0;orthogonalLoop=1;jettySize=auto;html=1;fontColor=#FFFF00;" edge="1" parent="1" source="8NmKRbJ38vvldy6Dzvw--48" target="8NmKRbJ38vvldy6Dzvw--51">
          <mxGeometry relative="1" as="geometry" />
        </mxCell>
        <mxCell id="8NmKRbJ38vvldy6Dzvw--54" value="" style="ellipse;whiteSpace=wrap;html=1;aspect=fixed;fillColor=#fad7ac;strokeColor=#CC0000;gradientColor=#ffffff;strokeWidth=2;" vertex="1" parent="1">
          <mxGeometry x="490" y="1050" width="40" height="40" as="geometry" />
        </mxCell>
        <mxCell id="8NmKRbJ38vvldy6Dzvw--55" value="&lt;b&gt;&lt;font color=&quot;#cc0000&quot;&gt;return&lt;/font&gt;&lt;/b&gt;" style="html=1;shadow=0;dashed=0;shape=mxgraph.bootstrap.rrect;rSize=5;strokeColor=none;strokeWidth=1;fillColor=none;fontColor=#6C767D;whiteSpace=wrap;align=left;verticalAlign=middle;spacingLeft=10;fontSize=14;spacing=10;" vertex="1" parent="1">
          <mxGeometry x="470" y="1100" width="70" height="20" as="geometry" />
        </mxCell>
        <mxCell id="8NmKRbJ38vvldy6Dzvw--57" value="no" style="html=1;shadow=0;dashed=0;shape=mxgraph.bootstrap.rrect;rSize=5;strokeColor=none;strokeWidth=1;fillColor=none;fontColor=#1A1A1A;whiteSpace=wrap;align=left;verticalAlign=middle;spacingLeft=10;fontSize=14;spacing=10;fontStyle=1;labelBackgroundColor=default;" vertex="1" parent="1">
          <mxGeometry x="670" y="970" width="70" height="20" as="geometry" />
        </mxCell>
        <mxCell id="8NmKRbJ38vvldy6Dzvw--58" value="" style="shape=image;html=1;verticalAlign=top;verticalLabelPosition=bottom;labelBackgroundColor=#ffffff;imageAspect=0;aspect=fixed;image=https://cdn4.iconfinder.com/data/icons/ios-web-user-interface-multi-circle-flat-vol-4/512/Building_business_company_house_home_real_estate_state-128.png;fontColor=#CC0000;strokeColor=#CC0000;strokeWidth=2;fillColor=#CC0000;gradientColor=#ffffff;" vertex="1" parent="1">
          <mxGeometry x="850" y="876.5" width="57" height="57" as="geometry" />
        </mxCell>
        <mxCell id="8NmKRbJ38vvldy6Dzvw--60" value="&lt;div style=&quot;text-align: center;&quot;&gt;&lt;span style=&quot;background-color: initial;&quot;&gt;show&lt;/span&gt;&lt;/div&gt;company info" style="html=1;shadow=0;dashed=0;shape=mxgraph.bootstrap.rrect;rSize=5;strokeColor=none;strokeWidth=1;fillColor=none;fontColor=#6C767D;whiteSpace=wrap;align=left;verticalAlign=middle;spacingLeft=10;fontSize=14;spacing=10;" vertex="1" parent="1">
          <mxGeometry x="820.24" y="940" width="116.51" height="20" as="geometry" />
        </mxCell>
        <mxCell id="8NmKRbJ38vvldy6Dzvw--61" value="yes" style="html=1;shadow=0;dashed=0;shape=mxgraph.bootstrap.rrect;rSize=5;strokeColor=none;strokeWidth=1;fillColor=none;fontColor=#1A1A1A;whiteSpace=wrap;align=left;verticalAlign=middle;spacingLeft=10;fontSize=14;spacing=10;fontStyle=1;labelBackgroundColor=default;" vertex="1" parent="1">
          <mxGeometry x="700" y="880" width="70" height="20" as="geometry" />
        </mxCell>
        <mxCell id="8NmKRbJ38vvldy6Dzvw--62" value="&amp;nbsp; &amp;nbsp;Company&amp;nbsp; register and approval flow" style="rounded=1;whiteSpace=wrap;html=1;fillColor=#6a00ff;strokeColor=#3700CC;fontColor=#ffffff;align=left;" vertex="1" parent="1">
          <mxGeometry x="90" y="1200" width="890" height="50" as="geometry" />
        </mxCell>
        <mxCell id="8NmKRbJ38vvldy6Dzvw--63" value="" style="rounded=1;whiteSpace=wrap;html=1;fillColor=#e1d5e7;strokeColor=#9673a6;" vertex="1" parent="1">
          <mxGeometry x="90" y="1260" width="150" height="400" as="geometry" />
        </mxCell>
        <mxCell id="8NmKRbJ38vvldy6Dzvw--64" value="Client" style="html=1;shadow=0;dashed=0;shape=mxgraph.bootstrap.rrect;rSize=5;strokeColor=none;strokeWidth=1;fillColor=none;fontColor=#6C767D;whiteSpace=wrap;align=left;verticalAlign=middle;spacingLeft=10;fontSize=14;spacing=10;" vertex="1" parent="1">
          <mxGeometry x="100" y="1270" width="70" height="20" as="geometry" />
        </mxCell>
        <mxCell id="8NmKRbJ38vvldy6Dzvw--65" value="" style="shape=mxgraph.cisco.computers_and_peripherals.web_browser;html=1;pointerEvents=1;dashed=0;fillColor=#036897;strokeColor=#ffffff;strokeWidth=2;verticalLabelPosition=bottom;verticalAlign=top;align=center;outlineConnect=0;fontColor=#999999;" vertex="1" parent="1">
          <mxGeometry x="130" y="1380" width="62" height="64" as="geometry" />
        </mxCell>
        <mxCell id="8NmKRbJ38vvldy6Dzvw--66" value="" style="rounded=1;whiteSpace=wrap;html=1;fillColor=#f5f5f5;strokeColor=#666666;fontColor=#333333;" vertex="1" parent="1">
          <mxGeometry x="250" y="1270" width="720" height="400" as="geometry" />
        </mxCell>
        <mxCell id="8NmKRbJ38vvldy6Dzvw--67" value="" style="group" vertex="1" connectable="0" parent="1">
          <mxGeometry x="280" y="1270" width="160" height="50" as="geometry" />
        </mxCell>
        <mxCell id="8NmKRbJ38vvldy6Dzvw--68" value="" style="group" vertex="1" connectable="0" parent="8NmKRbJ38vvldy6Dzvw--67">
          <mxGeometry x="-10" width="110" height="50" as="geometry" />
        </mxCell>
        <mxCell id="8NmKRbJ38vvldy6Dzvw--69" value="" style="shape=image;html=1;verticalAlign=top;verticalLabelPosition=bottom;labelBackgroundColor=#ffffff;imageAspect=0;aspect=fixed;image=https://cdn4.iconfinder.com/data/icons/scripting-and-programming-languages/512/660277-Python_logo-128.png;fontColor=#999999;fillColor=none;" vertex="1" parent="8NmKRbJ38vvldy6Dzvw--68">
          <mxGeometry x="30" width="50" height="50" as="geometry" />
        </mxCell>
        <mxCell id="8NmKRbJ38vvldy6Dzvw--70" value="Flask - API" style="html=1;shadow=0;dashed=0;shape=mxgraph.bootstrap.rrect;rSize=5;strokeColor=none;strokeWidth=1;fillColor=none;fontColor=#6C767D;whiteSpace=wrap;align=left;verticalAlign=middle;spacingLeft=10;fontSize=14;spacing=10;" vertex="1" parent="8NmKRbJ38vvldy6Dzvw--68">
          <mxGeometry y="30" width="110" height="20" as="geometry" />
        </mxCell>
        <mxCell id="8NmKRbJ38vvldy6Dzvw--71" value="" style="group" vertex="1" connectable="0" parent="1">
          <mxGeometry x="270" y="1380" width="130" height="68" as="geometry" />
        </mxCell>
        <mxCell id="8NmKRbJ38vvldy6Dzvw--72" value="" style="sketch=0;html=1;dashed=0;whitespace=wrap;fillColor=#2875E2;strokeColor=#ffffff;points=[[0.005,0.63,0],[0.1,0.2,0],[0.9,0.2,0],[0.5,0,0],[0.995,0.63,0],[0.72,0.99,0],[0.5,1,0],[0.28,0.99,0]];shape=mxgraph.kubernetes.icon;prIcon=api;fontColor=#999999;" vertex="1" parent="8NmKRbJ38vvldy6Dzvw--71">
          <mxGeometry x="30" width="50" height="48" as="geometry" />
        </mxCell>
        <mxCell id="8NmKRbJ38vvldy6Dzvw--73" value="API - Engine" style="html=1;shadow=0;dashed=0;shape=mxgraph.bootstrap.rrect;rSize=5;strokeColor=none;strokeWidth=1;fillColor=none;fontColor=#6C767D;whiteSpace=wrap;align=left;verticalAlign=middle;spacingLeft=10;fontSize=14;spacing=10;" vertex="1" parent="8NmKRbJ38vvldy6Dzvw--71">
          <mxGeometry y="48" width="130" height="20" as="geometry" />
        </mxCell>
        <mxCell id="8NmKRbJ38vvldy6Dzvw--74" style="edgeStyle=orthogonalEdgeStyle;rounded=0;orthogonalLoop=1;jettySize=auto;html=1;fontColor=#1A1A1A;" edge="1" parent="1" source="8NmKRbJ38vvldy6Dzvw--65" target="8NmKRbJ38vvldy6Dzvw--72">
          <mxGeometry relative="1" as="geometry" />
        </mxCell>
        <mxCell id="8NmKRbJ38vvldy6Dzvw--80" style="edgeStyle=orthogonalEdgeStyle;rounded=0;orthogonalLoop=1;jettySize=auto;html=1;fontColor=#1A1A1A;" edge="1" parent="1" source="8NmKRbJ38vvldy6Dzvw--75" target="8NmKRbJ38vvldy6Dzvw--78">
          <mxGeometry relative="1" as="geometry" />
        </mxCell>
        <mxCell id="8NmKRbJ38vvldy6Dzvw--75" value="&lt;br&gt;company_name&lt;br&gt;web_site&lt;br&gt;source&lt;br&gt;approved: false" style="html=1;outlineConnect=0;whiteSpace=wrap;fillColor=#99ffff;shape=mxgraph.archimate3.businessObject;overflow=fill;labelBackgroundColor=default;fontColor=#1A1A1A;strokeColor=#1A1A1A;strokeWidth=2;verticalAlign=bottom;" vertex="1" parent="1">
          <mxGeometry x="435" y="1353" width="150" height="75" as="geometry" />
        </mxCell>
        <mxCell id="8NmKRbJ38vvldy6Dzvw--76" style="edgeStyle=orthogonalEdgeStyle;rounded=0;orthogonalLoop=1;jettySize=auto;html=1;fontColor=#1A1A1A;" edge="1" parent="1" source="8NmKRbJ38vvldy6Dzvw--72" target="8NmKRbJ38vvldy6Dzvw--75">
          <mxGeometry relative="1" as="geometry" />
        </mxCell>
        <mxCell id="8NmKRbJ38vvldy6Dzvw--77" value="" style="group" vertex="1" connectable="0" parent="1">
          <mxGeometry x="630" y="1360" width="90" height="84" as="geometry" />
        </mxCell>
        <mxCell id="8NmKRbJ38vvldy6Dzvw--78" value="" style="shape=image;html=1;verticalAlign=top;verticalLabelPosition=bottom;labelBackgroundColor=#ffffff;imageAspect=0;aspect=fixed;image=https://cdn3.iconfinder.com/data/icons/animals-105/150/icon_animal_elefante-128.png;fontColor=#999999;fillColor=none;" vertex="1" parent="8NmKRbJ38vvldy6Dzvw--77">
          <mxGeometry x="20" width="70" height="70" as="geometry" />
        </mxCell>
        <mxCell id="8NmKRbJ38vvldy6Dzvw--79" value="&lt;font color=&quot;#ffff00&quot;&gt;PostgreSQL&lt;/font&gt;" style="html=1;shadow=0;dashed=0;shape=mxgraph.bootstrap.rrect;rSize=5;strokeColor=none;strokeWidth=1;fillColor=none;fontColor=#6C767D;whiteSpace=wrap;align=left;verticalAlign=middle;spacingLeft=10;fontSize=14;spacing=10;fontStyle=1" vertex="1" parent="8NmKRbJ38vvldy6Dzvw--77">
          <mxGeometry y="64" width="70" height="20" as="geometry" />
        </mxCell>
        <mxCell id="8NmKRbJ38vvldy6Dzvw--82" value="" style="shape=image;html=1;verticalAlign=top;verticalLabelPosition=bottom;labelBackgroundColor=#ffffff;imageAspect=0;aspect=fixed;image=https://cdn3.iconfinder.com/data/icons/essential-pack-2/48/8-Email-128.png;fontColor=#1A1A1A;strokeColor=#1A1A1A;strokeWidth=2;fillColor=#CC0000;gradientColor=#ffffff;" vertex="1" parent="1">
          <mxGeometry x="810" y="1374" width="56" height="56" as="geometry" />
        </mxCell>
        <mxCell id="8NmKRbJ38vvldy6Dzvw--83" style="edgeStyle=orthogonalEdgeStyle;rounded=0;orthogonalLoop=1;jettySize=auto;html=1;entryX=0;entryY=0.5;entryDx=0;entryDy=0;fontColor=#1A1A1A;" edge="1" parent="1" source="8NmKRbJ38vvldy6Dzvw--78" target="8NmKRbJ38vvldy6Dzvw--82">
          <mxGeometry relative="1" as="geometry" />
        </mxCell>
        <mxCell id="8NmKRbJ38vvldy6Dzvw--90" style="rounded=0;orthogonalLoop=1;jettySize=auto;html=1;fontColor=#1A1A1A;" edge="1" parent="1" source="8NmKRbJ38vvldy6Dzvw--87" target="8NmKRbJ38vvldy6Dzvw--88">
          <mxGeometry relative="1" as="geometry" />
        </mxCell>
        <mxCell id="8NmKRbJ38vvldy6Dzvw--87" value="approval email sended" style="html=1;shadow=0;dashed=0;shape=mxgraph.bootstrap.rrect;rSize=5;strokeColor=none;strokeWidth=1;fillColor=none;fontColor=#6C767D;whiteSpace=wrap;align=left;verticalAlign=middle;spacingLeft=10;fontSize=14;spacing=10;" vertex="1" parent="1">
          <mxGeometry x="745" y="1430" width="182.26" height="20" as="geometry" />
        </mxCell>
        <mxCell id="8NmKRbJ38vvldy6Dzvw--95" style="edgeStyle=orthogonalEdgeStyle;rounded=0;orthogonalLoop=1;jettySize=auto;html=1;fontColor=#1A1A1A;" edge="1" parent="1" source="8NmKRbJ38vvldy6Dzvw--88" target="8NmKRbJ38vvldy6Dzvw--93">
          <mxGeometry relative="1" as="geometry" />
        </mxCell>
        <mxCell id="8NmKRbJ38vvldy6Dzvw--88" value="" style="sketch=0;pointerEvents=1;shadow=0;dashed=0;html=1;strokeColor=none;fillColor=#505050;labelPosition=center;verticalLabelPosition=bottom;verticalAlign=top;outlineConnect=0;align=center;shape=mxgraph.office.users.tenant_admin;labelBackgroundColor=default;fontColor=#1A1A1A;" vertex="1" parent="1">
          <mxGeometry x="810" y="1540" width="56" height="58" as="geometry" />
        </mxCell>
        <mxCell id="8NmKRbJ38vvldy6Dzvw--89" value="approve" style="html=1;shadow=0;dashed=0;shape=mxgraph.bootstrap.rrect;rSize=5;strokeColor=none;strokeWidth=1;fillColor=none;fontColor=#6C767D;whiteSpace=wrap;align=left;verticalAlign=middle;spacingLeft=10;fontSize=14;spacing=10;" vertex="1" parent="1">
          <mxGeometry x="800" y="1610" width="72.26" height="20" as="geometry" />
        </mxCell>
        <mxCell id="8NmKRbJ38vvldy6Dzvw--92" value="" style="group" vertex="1" connectable="0" parent="1">
          <mxGeometry x="630" y="1540" width="90" height="84" as="geometry" />
        </mxCell>
        <mxCell id="8NmKRbJ38vvldy6Dzvw--93" value="" style="shape=image;html=1;verticalAlign=top;verticalLabelPosition=bottom;labelBackgroundColor=#ffffff;imageAspect=0;aspect=fixed;image=https://cdn3.iconfinder.com/data/icons/animals-105/150/icon_animal_elefante-128.png;fontColor=#999999;fillColor=none;" vertex="1" parent="8NmKRbJ38vvldy6Dzvw--92">
          <mxGeometry x="20" width="70" height="70" as="geometry" />
        </mxCell>
        <mxCell id="8NmKRbJ38vvldy6Dzvw--94" value="&lt;font color=&quot;#ffff00&quot;&gt;PostgreSQL&lt;/font&gt;" style="html=1;shadow=0;dashed=0;shape=mxgraph.bootstrap.rrect;rSize=5;strokeColor=none;strokeWidth=1;fillColor=none;fontColor=#6C767D;whiteSpace=wrap;align=left;verticalAlign=middle;spacingLeft=10;fontSize=14;spacing=10;fontStyle=1" vertex="1" parent="8NmKRbJ38vvldy6Dzvw--92">
          <mxGeometry y="64" width="70" height="20" as="geometry" />
        </mxCell>
        <mxCell id="8NmKRbJ38vvldy6Dzvw--100" style="edgeStyle=orthogonalEdgeStyle;rounded=0;orthogonalLoop=1;jettySize=auto;html=1;entryX=0.945;entryY=0.595;entryDx=0;entryDy=0;entryPerimeter=0;fontSize=12;fontColor=#1A1A1A;" edge="1" parent="1" source="8NmKRbJ38vvldy6Dzvw--93" target="8NmKRbJ38vvldy6Dzvw--96">
          <mxGeometry relative="1" as="geometry" />
        </mxCell>
        <mxCell id="8NmKRbJ38vvldy6Dzvw--103" value="" style="group" vertex="1" connectable="0" parent="1">
          <mxGeometry x="440.00000000000006" y="1550" width="136.13000000000005" height="73" as="geometry" />
        </mxCell>
        <mxCell id="8NmKRbJ38vvldy6Dzvw--96" value="" style="sketch=0;pointerEvents=1;shadow=0;dashed=0;html=1;strokeColor=none;labelPosition=center;verticalLabelPosition=bottom;verticalAlign=top;align=center;fillColor=#505050;shape=mxgraph.mscae.intune.update;labelBackgroundColor=default;fontColor=#1A1A1A;" vertex="1" parent="8NmKRbJ38vvldy6Dzvw--103">
          <mxGeometry x="49.99999999999994" width="48" height="50" as="geometry" />
        </mxCell>
        <mxCell id="8NmKRbJ38vvldy6Dzvw--97" value="&lt;font style=&quot;font-size: 12px;&quot;&gt;update approved &lt;br&gt;as true&lt;/font&gt;" style="html=1;shadow=0;dashed=0;shape=mxgraph.bootstrap.rrect;rSize=5;strokeColor=none;strokeWidth=1;fillColor=none;fontColor=#6C767D;whiteSpace=wrap;align=center;verticalAlign=middle;spacingLeft=10;fontSize=14;spacing=10;" vertex="1" parent="8NmKRbJ38vvldy6Dzvw--103">
          <mxGeometry y="53" width="136.13" height="20" as="geometry" />
        </mxCell>
      </root>
    </mxGraphModel>
  </diagram>
</mxfile>
